<mxfile host="app.diagrams.net" modified="2023-10-28T08:38:44.773Z" agent="Mozilla/5.0 (Windows NT 10.0; Win64; x64) AppleWebKit/537.36 (KHTML, like Gecko) Chrome/118.0.0.0 Safari/537.36" etag="dmJHzksRBbKfp_SP0HdM" version="22.0.8" type="github">
  <diagram name="페이지-1" id="_MqOBc1T33jrnYwqbLqr">
    <mxGraphModel dx="2261" dy="758" grid="1" gridSize="10" guides="1" tooltips="1" connect="1" arrows="1" fold="1" page="1" pageScale="1" pageWidth="827" pageHeight="1169" math="0" shadow="0">
      <root>
        <mxCell id="0" />
        <mxCell id="1" parent="0" />
        <mxCell id="qfqgAnz6_im0zXcbRkbM-11" value="" style="rounded=0;whiteSpace=wrap;html=1;" vertex="1" parent="1">
          <mxGeometry x="45" y="110" width="745" height="550" as="geometry" />
        </mxCell>
        <mxCell id="qfqgAnz6_im0zXcbRkbM-1" value="User" style="shape=umlActor;verticalLabelPosition=bottom;verticalAlign=top;html=1;outlineConnect=0;" vertex="1" parent="1">
          <mxGeometry x="-90" y="330" width="30" height="60" as="geometry" />
        </mxCell>
        <mxCell id="qfqgAnz6_im0zXcbRkbM-3" value="&lt;h2&gt;&lt;font face=&quot;Tahoma&quot;&gt;게시글 서비스&lt;/font&gt;&lt;/h2&gt;" style="text;html=1;strokeColor=none;fillColor=none;align=center;verticalAlign=middle;whiteSpace=wrap;rounded=0;" vertex="1" parent="1">
          <mxGeometry x="323.5" y="120" width="188" height="30" as="geometry" />
        </mxCell>
        <mxCell id="qfqgAnz6_im0zXcbRkbM-4" value="글 작성" style="swimlane;fontStyle=0;childLayout=stackLayout;horizontal=1;startSize=30;horizontalStack=0;resizeParent=1;resizeParentMax=0;resizeLast=0;collapsible=1;marginBottom=0;whiteSpace=wrap;html=1;fontFamily=Helvetica;" vertex="1" parent="1">
          <mxGeometry x="330" y="440" width="140" height="180" as="geometry">
            <mxRectangle x="220" y="200" width="120" height="30" as="alternateBounds" />
          </mxGeometry>
        </mxCell>
        <mxCell id="qfqgAnz6_im0zXcbRkbM-5" value="제목 title" style="text;strokeColor=none;fillColor=none;align=left;verticalAlign=middle;spacingLeft=4;spacingRight=4;overflow=hidden;points=[[0,0.5],[1,0.5]];portConstraint=eastwest;rotatable=0;whiteSpace=wrap;html=1;fontFamily=Helvetica;" vertex="1" parent="qfqgAnz6_im0zXcbRkbM-4">
          <mxGeometry y="30" width="140" height="30" as="geometry" />
        </mxCell>
        <mxCell id="qfqgAnz6_im0zXcbRkbM-6" value="작성자 name" style="text;strokeColor=none;fillColor=none;align=left;verticalAlign=middle;spacingLeft=4;spacingRight=4;overflow=hidden;points=[[0,0.5],[1,0.5]];portConstraint=eastwest;rotatable=0;whiteSpace=wrap;html=1;" vertex="1" parent="qfqgAnz6_im0zXcbRkbM-4">
          <mxGeometry y="60" width="140" height="30" as="geometry" />
        </mxCell>
        <mxCell id="qfqgAnz6_im0zXcbRkbM-10" value="비번 password" style="text;strokeColor=none;fillColor=none;align=left;verticalAlign=middle;spacingLeft=4;spacingRight=4;overflow=hidden;points=[[0,0.5],[1,0.5]];portConstraint=eastwest;rotatable=0;whiteSpace=wrap;html=1;" vertex="1" parent="qfqgAnz6_im0zXcbRkbM-4">
          <mxGeometry y="90" width="140" height="30" as="geometry" />
        </mxCell>
        <mxCell id="qfqgAnz6_im0zXcbRkbM-7" value="내용 contents" style="text;strokeColor=none;fillColor=none;align=left;verticalAlign=middle;spacingLeft=4;spacingRight=4;overflow=hidden;points=[[0,0.5],[1,0.5]];portConstraint=eastwest;rotatable=0;whiteSpace=wrap;html=1;" vertex="1" parent="qfqgAnz6_im0zXcbRkbM-4">
          <mxGeometry y="120" width="140" height="30" as="geometry" />
        </mxCell>
        <mxCell id="qfqgAnz6_im0zXcbRkbM-8" value="작성일 createdAt" style="text;strokeColor=none;fillColor=none;align=left;verticalAlign=middle;spacingLeft=4;spacingRight=4;overflow=hidden;points=[[0,0.5],[1,0.5]];portConstraint=eastwest;rotatable=0;whiteSpace=wrap;html=1;" vertex="1" parent="qfqgAnz6_im0zXcbRkbM-4">
          <mxGeometry y="150" width="140" height="30" as="geometry" />
        </mxCell>
        <mxCell id="qfqgAnz6_im0zXcbRkbM-9" value="최종수정일 modifiedAt" style="text;strokeColor=none;fillColor=none;align=left;verticalAlign=middle;spacingLeft=4;spacingRight=4;overflow=hidden;points=[[0,0.5],[1,0.5]];portConstraint=eastwest;rotatable=0;whiteSpace=wrap;html=1;" vertex="1" parent="1">
          <mxGeometry x="-145" y="470" width="140" height="30" as="geometry" />
        </mxCell>
        <mxCell id="qfqgAnz6_im0zXcbRkbM-12" value="" style="endArrow=classic;html=1;rounded=0;" edge="1" parent="1" source="qfqgAnz6_im0zXcbRkbM-1" target="qfqgAnz6_im0zXcbRkbM-13">
          <mxGeometry width="50" height="50" relative="1" as="geometry">
            <mxPoint x="295" y="390" as="sourcePoint" />
            <mxPoint x="345" y="340" as="targetPoint" />
          </mxGeometry>
        </mxCell>
        <mxCell id="qfqgAnz6_im0zXcbRkbM-13" value="전체 글 조회" style="swimlane;fontStyle=0;childLayout=stackLayout;horizontal=1;startSize=30;horizontalStack=0;resizeParent=1;resizeParentMax=0;resizeLast=0;collapsible=1;marginBottom=0;whiteSpace=wrap;html=1;fontFamily=Helvetica;" vertex="1" parent="1">
          <mxGeometry x="85" y="310" width="140" height="120" as="geometry">
            <mxRectangle x="220" y="200" width="120" height="30" as="alternateBounds" />
          </mxGeometry>
        </mxCell>
        <mxCell id="qfqgAnz6_im0zXcbRkbM-14" value="제목 title" style="text;strokeColor=none;fillColor=none;align=left;verticalAlign=middle;spacingLeft=4;spacingRight=4;overflow=hidden;points=[[0,0.5],[1,0.5]];portConstraint=eastwest;rotatable=0;whiteSpace=wrap;html=1;fontFamily=Helvetica;" vertex="1" parent="qfqgAnz6_im0zXcbRkbM-13">
          <mxGeometry y="30" width="140" height="30" as="geometry" />
        </mxCell>
        <mxCell id="qfqgAnz6_im0zXcbRkbM-15" value="작성자 name" style="text;strokeColor=none;fillColor=none;align=left;verticalAlign=middle;spacingLeft=4;spacingRight=4;overflow=hidden;points=[[0,0.5],[1,0.5]];portConstraint=eastwest;rotatable=0;whiteSpace=wrap;html=1;" vertex="1" parent="qfqgAnz6_im0zXcbRkbM-13">
          <mxGeometry y="60" width="140" height="30" as="geometry" />
        </mxCell>
        <mxCell id="qfqgAnz6_im0zXcbRkbM-18" value="작성일 createdAt" style="text;strokeColor=none;fillColor=none;align=left;verticalAlign=middle;spacingLeft=4;spacingRight=4;overflow=hidden;points=[[0,0.5],[1,0.5]];portConstraint=eastwest;rotatable=0;whiteSpace=wrap;html=1;" vertex="1" parent="qfqgAnz6_im0zXcbRkbM-13">
          <mxGeometry y="90" width="140" height="30" as="geometry" />
        </mxCell>
        <mxCell id="qfqgAnz6_im0zXcbRkbM-25" value="글 수정" style="swimlane;fontStyle=0;childLayout=stackLayout;horizontal=1;startSize=30;horizontalStack=0;resizeParent=1;resizeParentMax=0;resizeLast=0;collapsible=1;marginBottom=0;whiteSpace=wrap;html=1;fontFamily=Helvetica;" vertex="1" parent="1">
          <mxGeometry x="590" y="170" width="140" height="150" as="geometry">
            <mxRectangle x="220" y="200" width="120" height="30" as="alternateBounds" />
          </mxGeometry>
        </mxCell>
        <mxCell id="qfqgAnz6_im0zXcbRkbM-26" value="제목 title" style="text;strokeColor=none;fillColor=none;align=left;verticalAlign=middle;spacingLeft=4;spacingRight=4;overflow=hidden;points=[[0,0.5],[1,0.5]];portConstraint=eastwest;rotatable=0;whiteSpace=wrap;html=1;fontFamily=Helvetica;" vertex="1" parent="qfqgAnz6_im0zXcbRkbM-25">
          <mxGeometry y="30" width="140" height="30" as="geometry" />
        </mxCell>
        <mxCell id="qfqgAnz6_im0zXcbRkbM-28" value="비번 password" style="text;strokeColor=none;fillColor=none;align=left;verticalAlign=middle;spacingLeft=4;spacingRight=4;overflow=hidden;points=[[0,0.5],[1,0.5]];portConstraint=eastwest;rotatable=0;whiteSpace=wrap;html=1;" vertex="1" parent="qfqgAnz6_im0zXcbRkbM-25">
          <mxGeometry y="60" width="140" height="30" as="geometry" />
        </mxCell>
        <mxCell id="qfqgAnz6_im0zXcbRkbM-29" value="내용 contents" style="text;strokeColor=none;fillColor=none;align=left;verticalAlign=middle;spacingLeft=4;spacingRight=4;overflow=hidden;points=[[0,0.5],[1,0.5]];portConstraint=eastwest;rotatable=0;whiteSpace=wrap;html=1;" vertex="1" parent="qfqgAnz6_im0zXcbRkbM-25">
          <mxGeometry y="90" width="140" height="30" as="geometry" />
        </mxCell>
        <mxCell id="qfqgAnz6_im0zXcbRkbM-30" value="수정일 modifiedAt" style="text;strokeColor=none;fillColor=none;align=left;verticalAlign=middle;spacingLeft=4;spacingRight=4;overflow=hidden;points=[[0,0.5],[1,0.5]];portConstraint=eastwest;rotatable=0;whiteSpace=wrap;html=1;" vertex="1" parent="qfqgAnz6_im0zXcbRkbM-25">
          <mxGeometry y="120" width="140" height="30" as="geometry" />
        </mxCell>
        <mxCell id="qfqgAnz6_im0zXcbRkbM-31" value="글 삭제" style="swimlane;fontStyle=0;childLayout=stackLayout;horizontal=1;startSize=30;horizontalStack=0;resizeParent=1;resizeParentMax=0;resizeLast=0;collapsible=1;marginBottom=0;whiteSpace=wrap;html=1;fontFamily=Helvetica;" vertex="1" parent="1">
          <mxGeometry x="600" y="390" width="140" height="60" as="geometry">
            <mxRectangle x="220" y="200" width="120" height="30" as="alternateBounds" />
          </mxGeometry>
        </mxCell>
        <mxCell id="qfqgAnz6_im0zXcbRkbM-34" value="비번 password" style="text;strokeColor=none;fillColor=none;align=left;verticalAlign=middle;spacingLeft=4;spacingRight=4;overflow=hidden;points=[[0,0.5],[1,0.5]];portConstraint=eastwest;rotatable=0;whiteSpace=wrap;html=1;" vertex="1" parent="qfqgAnz6_im0zXcbRkbM-31">
          <mxGeometry y="30" width="140" height="30" as="geometry" />
        </mxCell>
        <mxCell id="qfqgAnz6_im0zXcbRkbM-19" value="글 선택 조회" style="swimlane;fontStyle=0;childLayout=stackLayout;horizontal=1;startSize=30;horizontalStack=0;resizeParent=1;resizeParentMax=0;resizeLast=0;collapsible=1;marginBottom=0;whiteSpace=wrap;html=1;fontFamily=Helvetica;" vertex="1" parent="1">
          <mxGeometry x="330" y="170" width="140" height="150" as="geometry">
            <mxRectangle x="220" y="200" width="120" height="30" as="alternateBounds" />
          </mxGeometry>
        </mxCell>
        <mxCell id="qfqgAnz6_im0zXcbRkbM-20" value="제목 title" style="text;strokeColor=none;fillColor=none;align=left;verticalAlign=middle;spacingLeft=4;spacingRight=4;overflow=hidden;points=[[0,0.5],[1,0.5]];portConstraint=eastwest;rotatable=0;whiteSpace=wrap;html=1;fontFamily=Helvetica;" vertex="1" parent="qfqgAnz6_im0zXcbRkbM-19">
          <mxGeometry y="30" width="140" height="30" as="geometry" />
        </mxCell>
        <mxCell id="qfqgAnz6_im0zXcbRkbM-21" value="작성자 name" style="text;strokeColor=none;fillColor=none;align=left;verticalAlign=middle;spacingLeft=4;spacingRight=4;overflow=hidden;points=[[0,0.5],[1,0.5]];portConstraint=eastwest;rotatable=0;whiteSpace=wrap;html=1;" vertex="1" parent="qfqgAnz6_im0zXcbRkbM-19">
          <mxGeometry y="60" width="140" height="30" as="geometry" />
        </mxCell>
        <mxCell id="qfqgAnz6_im0zXcbRkbM-23" value="내용 contents" style="text;strokeColor=none;fillColor=none;align=left;verticalAlign=middle;spacingLeft=4;spacingRight=4;overflow=hidden;points=[[0,0.5],[1,0.5]];portConstraint=eastwest;rotatable=0;whiteSpace=wrap;html=1;" vertex="1" parent="qfqgAnz6_im0zXcbRkbM-19">
          <mxGeometry y="90" width="140" height="30" as="geometry" />
        </mxCell>
        <mxCell id="qfqgAnz6_im0zXcbRkbM-24" value="작성일 createdAt" style="text;strokeColor=none;fillColor=none;align=left;verticalAlign=middle;spacingLeft=4;spacingRight=4;overflow=hidden;points=[[0,0.5],[1,0.5]];portConstraint=eastwest;rotatable=0;whiteSpace=wrap;html=1;" vertex="1" parent="qfqgAnz6_im0zXcbRkbM-19">
          <mxGeometry y="120" width="140" height="30" as="geometry" />
        </mxCell>
        <mxCell id="qfqgAnz6_im0zXcbRkbM-39" value="" style="endArrow=classic;startArrow=classic;html=1;rounded=0;" edge="1" parent="1" source="qfqgAnz6_im0zXcbRkbM-19" target="qfqgAnz6_im0zXcbRkbM-25">
          <mxGeometry width="50" height="50" relative="1" as="geometry">
            <mxPoint x="390" y="490" as="sourcePoint" />
            <mxPoint x="440" y="440" as="targetPoint" />
          </mxGeometry>
        </mxCell>
        <mxCell id="qfqgAnz6_im0zXcbRkbM-42" value="" style="endArrow=classic;html=1;rounded=0;exitX=0.25;exitY=0;exitDx=0;exitDy=0;" edge="1" parent="1" source="qfqgAnz6_im0zXcbRkbM-4" target="qfqgAnz6_im0zXcbRkbM-19">
          <mxGeometry width="50" height="50" relative="1" as="geometry">
            <mxPoint x="350" y="400" as="sourcePoint" />
            <mxPoint x="400" y="350" as="targetPoint" />
          </mxGeometry>
        </mxCell>
        <mxCell id="qfqgAnz6_im0zXcbRkbM-43" value="취소" style="text;html=1;strokeColor=none;fillColor=none;align=center;verticalAlign=middle;whiteSpace=wrap;rounded=0;" vertex="1" parent="1">
          <mxGeometry x="210" y="470" width="60" height="30" as="geometry" />
        </mxCell>
        <mxCell id="qfqgAnz6_im0zXcbRkbM-45" value="등록" style="text;html=1;strokeColor=none;fillColor=none;align=center;verticalAlign=middle;whiteSpace=wrap;rounded=0;" vertex="1" parent="1">
          <mxGeometry x="369" y="350" width="60" height="30" as="geometry" />
        </mxCell>
        <mxCell id="qfqgAnz6_im0zXcbRkbM-46" value="" style="endArrow=classic;html=1;rounded=0;" edge="1" parent="1" source="qfqgAnz6_im0zXcbRkbM-13" target="qfqgAnz6_im0zXcbRkbM-4">
          <mxGeometry width="50" height="50" relative="1" as="geometry">
            <mxPoint x="390" y="490" as="sourcePoint" />
            <mxPoint x="440" y="440" as="targetPoint" />
            <Array as="points">
              <mxPoint x="290" y="440" />
            </Array>
          </mxGeometry>
        </mxCell>
        <mxCell id="qfqgAnz6_im0zXcbRkbM-47" value="" style="endArrow=classic;html=1;rounded=0;" edge="1" parent="1" source="qfqgAnz6_im0zXcbRkbM-4" target="qfqgAnz6_im0zXcbRkbM-13">
          <mxGeometry width="50" height="50" relative="1" as="geometry">
            <mxPoint x="340" y="494" as="sourcePoint" />
            <mxPoint x="235" y="426" as="targetPoint" />
            <Array as="points">
              <mxPoint x="270" y="470" />
            </Array>
          </mxGeometry>
        </mxCell>
        <mxCell id="qfqgAnz6_im0zXcbRkbM-48" value="작성" style="text;html=1;strokeColor=none;fillColor=none;align=center;verticalAlign=middle;whiteSpace=wrap;rounded=0;" vertex="1" parent="1">
          <mxGeometry x="250" y="400" width="60" height="30" as="geometry" />
        </mxCell>
        <mxCell id="qfqgAnz6_im0zXcbRkbM-49" value="" style="endArrow=classic;html=1;rounded=0;" edge="1" parent="1" source="qfqgAnz6_im0zXcbRkbM-13" target="qfqgAnz6_im0zXcbRkbM-19">
          <mxGeometry width="50" height="50" relative="1" as="geometry">
            <mxPoint x="390" y="490" as="sourcePoint" />
            <mxPoint x="440" y="440" as="targetPoint" />
            <Array as="points">
              <mxPoint x="260" y="290" />
            </Array>
          </mxGeometry>
        </mxCell>
        <mxCell id="qfqgAnz6_im0zXcbRkbM-50" value="선택" style="text;html=1;strokeColor=none;fillColor=none;align=center;verticalAlign=middle;whiteSpace=wrap;rounded=0;" vertex="1" parent="1">
          <mxGeometry x="220" y="245" width="60" height="30" as="geometry" />
        </mxCell>
        <mxCell id="qfqgAnz6_im0zXcbRkbM-51" value="" style="endArrow=classic;html=1;rounded=0;" edge="1" parent="1" source="qfqgAnz6_im0zXcbRkbM-19" target="qfqgAnz6_im0zXcbRkbM-13">
          <mxGeometry width="50" height="50" relative="1" as="geometry">
            <mxPoint x="390" y="490" as="sourcePoint" />
            <mxPoint x="440" y="440" as="targetPoint" />
            <Array as="points">
              <mxPoint x="280" y="330" />
            </Array>
          </mxGeometry>
        </mxCell>
        <mxCell id="qfqgAnz6_im0zXcbRkbM-52" value="전체목록" style="text;html=1;strokeColor=none;fillColor=none;align=center;verticalAlign=middle;whiteSpace=wrap;rounded=0;" vertex="1" parent="1">
          <mxGeometry x="259" y="333" width="60" height="30" as="geometry" />
        </mxCell>
        <mxCell id="qfqgAnz6_im0zXcbRkbM-53" value="수정" style="text;html=1;strokeColor=none;fillColor=none;align=center;verticalAlign=middle;whiteSpace=wrap;rounded=0;" vertex="1" parent="1">
          <mxGeometry x="500" y="215" width="60" height="30" as="geometry" />
        </mxCell>
        <mxCell id="qfqgAnz6_im0zXcbRkbM-54" value="수정완료" style="text;html=1;strokeColor=none;fillColor=none;align=center;verticalAlign=middle;whiteSpace=wrap;rounded=0;" vertex="1" parent="1">
          <mxGeometry x="500" y="250" width="60" height="30" as="geometry" />
        </mxCell>
        <mxCell id="qfqgAnz6_im0zXcbRkbM-55" value="" style="endArrow=classic;html=1;rounded=0;" edge="1" parent="1" source="qfqgAnz6_im0zXcbRkbM-19" target="qfqgAnz6_im0zXcbRkbM-31">
          <mxGeometry width="50" height="50" relative="1" as="geometry">
            <mxPoint x="390" y="490" as="sourcePoint" />
            <mxPoint x="440" y="440" as="targetPoint" />
            <Array as="points" />
          </mxGeometry>
        </mxCell>
        <mxCell id="qfqgAnz6_im0zXcbRkbM-56" value="" style="endArrow=classic;html=1;rounded=0;" edge="1" parent="1" source="qfqgAnz6_im0zXcbRkbM-31" target="qfqgAnz6_im0zXcbRkbM-13">
          <mxGeometry width="50" height="50" relative="1" as="geometry">
            <mxPoint x="390" y="490" as="sourcePoint" />
            <mxPoint x="440" y="440" as="targetPoint" />
            <Array as="points">
              <mxPoint x="510" y="380" />
            </Array>
          </mxGeometry>
        </mxCell>
        <mxCell id="qfqgAnz6_im0zXcbRkbM-57" value="삭제" style="text;html=1;strokeColor=none;fillColor=none;align=center;verticalAlign=middle;whiteSpace=wrap;rounded=0;" vertex="1" parent="1">
          <mxGeometry x="500" y="333" width="60" height="30" as="geometry" />
        </mxCell>
        <mxCell id="qfqgAnz6_im0zXcbRkbM-58" value="삭제 완료" style="text;html=1;strokeColor=none;fillColor=none;align=center;verticalAlign=middle;whiteSpace=wrap;rounded=0;" vertex="1" parent="1">
          <mxGeometry x="490" y="390" width="60" height="30" as="geometry" />
        </mxCell>
      </root>
    </mxGraphModel>
  </diagram>
</mxfile>
